<svg xmlns="http://www.w3.org/2000/svg" version="1.1" xmlns:xlink="http://www.w3.org/1999/xlink" xmlns:svgjs="http://svgjs.dev/svgjs" width="100%" height="100%" viewBox="0 0 1000 600"><rect width="1000" height="600" x="0" y="0" fill="#dfdffc"/><g><rect width="333.3333333333333" height="333.3333333333333" rx="13.333333333333334" ry="13.333333333333334" y="161.63281787610424" fill="#3d155f" transform="matrix(0.8966320695695421,0,0,0.8966320695695422,0,5.636161408021337)" x="139.41061401367188"/><path d="M236.74220896917694 403.29949711525626L236.74220896917694 253.29949343696225L298.2729457130653 253.29949343696225Q332.71448934590785 253.29949343696225 353.6867678834917 272.58434726462565L353.6867678834917 272.58434726462565Q375.4123610237187 292.50198535850916 375.4123610237187 325.8587559635456L375.4123610237187 325.8587559635456Q375.4123610237187 361.1440119513484 353.17451395369443 382.3272185776724L353.17451395369443 382.3272185776724Q331.23799272472735 403.29949711525626 295.3199524707044 403.29949711525626L295.3199524707044 403.29949711525626L236.74220896917694 403.29949711525626ZM256.32838863789755 385.49113990877345L297.9716198720081 385.49113990877345Q324.33763096451656 385.49113990877345 339.61485110611864 369.61126808505685L339.61485110611864 369.61126808505685Q354.6510105748749 353.9423243500804 354.6510105748749 327.124324495986L354.6510105748749 327.124324495986Q354.6510105748749 301.2705673332748 338.0178241485152 286.02347977577847L338.0178241485152 286.02347977577847Q321.80649389963577 271.0777180593394 295.2295547183872 271.0777180593394L295.2295547183872 271.0777180593394L256.32838863789755 271.0777180593394L256.32838863789755 385.49113990877345Z " fill="#dfdffc" transform="matrix(0.8966320695695421,0,0,0.8966320695695422,0,5.636161408021337)"/><path d="M556.077284419029 401.37747037564634L556.077284419029 264.6943319168022L612.1453777763932 264.6943319168022Q643.5292321874938 264.6943319168022 662.6396107265367 282.26709379178413L662.6396107265367 282.26709379178413Q682.4364252763212 300.416461915789 682.4364252763212 330.81184847142185L682.4364252763212 330.81184847142185Q682.4364252763212 362.964511214553 662.1728342392325 382.2670918366034L662.1728342392325 382.2670918366034Q642.1838176064405 401.37747037564634 609.4545486142866 401.37747037564634L609.4545486142866 401.37747037564634L556.077284419029 401.37747037564634ZM573.9246206983074 385.15012308171777L611.8708033720966 385.15012308171777Q635.8960637480486 385.15012308171777 649.8169860458859 370.68005197528726L649.8169860458859 370.68005197528726Q663.5182488202859 356.40218295186435 663.5182488202859 331.9650609694676L663.5182488202859 331.9650609694676Q663.5182488202859 308.40657708081983 648.3617417031139 294.51311222341224L648.3617417031139 294.51311222341224Q633.5896387519572 280.8942217703012 609.3721762929977 280.8942217703012L609.3721762929977 280.8942217703012L573.9246206983074 280.8942217703012L573.9246206983074 385.15012308171777ZM731.6676159667004 265.16110840410636Q731.6676159667004 270.5702241687493 728.3727231151412 273.8651170203084Q725.1052877040117 277.13255243143783 719.6961719393689 277.13255243143783Q714.287056174726 277.13255243143783 710.9921633231669 273.8651170203084Q707.7247279120375 270.5702241687493 707.7247279120375 265.16110840410636Q707.7247279120375 259.7794500798932 710.9921633231669 256.53947210919335Q714.287056174726 253.29949413849354 719.6961719393689 253.29949413849354Q725.1052877040117 253.29949413849354 728.3727231151412 256.53947210919335Q731.6676159667004 259.7794500798932 731.6676159667004 265.16110840410636ZM710.5253868358627 401.37747037564634L710.5253868358627 304.83710982496416L728.8669570428751 304.83710982496416L728.8669570428751 401.37747037564634L710.5253868358627 401.37747037564634ZM827.4117107449224 389.02162218229967L827.4117107449224 389.02162218229967Q809.7565765486515 403.2994912057226 790.2617938435934 403.2994912057226L790.2617938435934 403.2994912057226Q776.6429033904823 403.2994912057226 767.3897459656871 396.1605566940111L767.3897459656871 396.1605566940111Q757.4226950897207 388.44501593327686 757.4226950897207 375.97933797821145L757.4226950897207 375.97933797821145Q757.4226950897207 350.30663117648 791.6072084246466 341.7124523219966L791.6072084246466 341.7124523219966Q805.4183009607652 338.25281482785954 824.7208815828158 337.86841066184434L824.7208815828158 337.86841066184434Q824.144275333793 322.1352972956495 809.3721723826362 319.3346383718242L809.3721723826362 319.3346383718242Q804.5396628670162 318.3736279567862 800.283759600419 318.3736279567862Q796.0553137742515 318.3736279567862 792.7604209226923 318.7580321228014Q789.4929855115629 319.1424362888166 786.0058905769961 319.8014148591285L786.0058905769961 319.8014148591285Q778.3727221375509 321.25665920190045 773.0734361346266 323.37088211498417L773.0734361346266 323.37088211498417L767.96635221471 309.6696193405842Q781.4754129061024 302.9150889948879 800.5857914451452 302.9150889948879L800.5857914451452 302.9150889948879Q830.4045717517554 302.9150889948879 839.8773886999877 321.9430952126419L839.8773886999877 321.9430952126419Q843.0624517898283 328.50542347533053 843.0624517898283 337.5663788171181L843.0624517898283 337.5663788171181L843.0624517898283 368.3736269791958Q843.0624517898283 378.2033906530139 844.5176961326002 381.498283504573L844.5176961326002 381.498283504573Q847.0986955329881 387.7585799225353 853.6884812361064 389.5158561100335L853.6884812361064 389.5158561100335L850.9701946335701 401.37747037564634Q832.930656271284 403.4916932887302 827.4117107449224 389.02162218229967ZM792.7055060418331 356.84150199873886Q783.6994655809048 360.2462246120167 779.7455941590339 364.3648406764655Q775.7642652967332 368.4559993004848 775.7642652967332 373.1786790543863Q775.7642652967332 377.92881624871734 777.1371373182162 380.37252844695695Q778.4825518992695 382.84369808562633 780.7066045740719 384.4911445114059L780.7066045740719 384.4911445114059Q785.2370822449657 387.86840968425395 791.3051765799204 387.86840968425395Q797.4007283553048 387.86840968425395 802.2606953113545 386.5504525436303Q807.1481197078339 385.2599528434363 811.2941932127123 383.14572993035256L811.2941932127123 383.14572993035256Q819.4215955798916 379.08202874676294 824.7208815828158 373.0963067330972L824.7208815828158 373.0963067330972L824.7208815828158 352.25610944698576Q801.7390039431909 353.4093219450315 792.7055060418331 356.84150199873886ZM894.3254930720022 304.83710982496416L897.1261519958275 314.39229909448557Q912.2826591129995 302.9150889948879 931.8598141393466 302.9150889948879L931.8598141393466 302.9150889948879Q975.8740911480904 302.9150889948879 975.8740911480904 351.2676415915181L975.8740911480904 351.2676415915181L975.8740911480904 401.37747037564634L957.532520941078 401.37747037564634L957.532520941078 352.4483115299935Q957.532520941078 335.72673030833084 951.7390010104199 327.6267853815814L951.7390010104199 327.6267853815814Q945.28650250945 318.3736279567862 930.6242293200119 318.3736279567862L930.6242293200119 318.3736279567862Q914.8636585133873 318.3736279567862 904.2650865075389 326.08916871752047L904.2650865075389 326.08916871752047Q900.7779915729722 328.50542347533053 898.6637686598884 331.690486565171L898.6637686598884 331.690486565171L898.6637686598884 401.37747037564634L880.322198452876 401.37747037564634L880.322198452876 304.83710982496416L894.3254930720022 304.83710982496416Z " fill="#3d1a5f" transform="matrix(0.8966320695695421,0,0,0.8966320695695422,0,5.636161408021337)"/></g></svg>